<svg xmlns="http://www.w3.org/2000/svg" viewBox="0 0 128 128"><defs><linearGradient id="g" x1=".33" y1=".03" x2=".67" y2=".97"><stop offset="0" stop-color="#35C4D8"/><stop offset=".78" stop-color="#0A6F8C"/></linearGradient></defs><rect width="128" height="128" rx="28.8" fill="url(#g)"/><g transform="translate(30.72 30.72) scale(2.773)" fill="none" stroke="#fff" stroke-width="1.8" stroke-linecap="round" stroke-linejoin="round"><path d="M4.7 15.6v-1.9a7.3 7.3 0 0 1 14.6 0v1.9"/><path d="M10.2 6.6v4.9M13.8 6.6v4.9"/><path d="M2.9 15.9h18.2a.9.9 0 0 1 .9.9v.3a1.9 1.9 0 0 1-1.9 1.9H3.9A1.9 1.9 0 0 1 2 17.1v-.3a.9.9 0 0 1 .9-.9z"/></g></svg>
